<svg width="1200" height="630" viewBox="0 0 1200 630" fill="none" xmlns="http://www.w3.org/2000/svg">
  <rect width="1200" height="630" fill="#020617"/>
  <circle cx="1000" cy="80" r="360" fill="#312e81" opacity="0.42"/>
  <circle cx="220" cy="560" r="300" fill="#581c87" opacity="0.34"/>
  <circle cx="670" cy="290" r="230" fill="#4f46e5" opacity="0.2"/>
  <rect x="96" y="82" width="1008" height="466" rx="44" fill="#0f172a" opacity="0.76"/>
  <rect x="96.5" y="82.5" width="1007" height="465" rx="43.5" stroke="url(#border)" opacity="0.9"/>
  <g filter="url(#glow)">
    <circle cx="177" cy="161" r="34" fill="#4f46e5"/>
    <path d="M153 161C159 146 167 139 177 139C187 139 195 146 201 161C195 176 187 183 177 183C167 183 159 176 153 161Z" stroke="white" stroke-width="7" stroke-linecap="round" stroke-linejoin="round"/>
    <circle cx="177" cy="161" r="8" fill="white"/>
  </g>
  <text x="230" y="175" fill="white" font-family="Inter, ui-sans-serif, system-ui, -apple-system, BlinkMacSystemFont, 'Segoe UI', sans-serif" font-size="42" font-weight="800" letter-spacing="-1">InterviewIntel</text>
  <text x="136" y="294" fill="white" font-family="Inter, ui-sans-serif, system-ui, -apple-system, BlinkMacSystemFont, 'Segoe UI', sans-serif" font-size="68" font-weight="800" letter-spacing="-2.6">From job posting to</text>
  <text x="136" y="370" fill="#c4b5fd" font-family="Inter, ui-sans-serif, system-ui, -apple-system, BlinkMacSystemFont, 'Segoe UI', sans-serif" font-size="68" font-weight="800" letter-spacing="-2.6">interview-ready in minutes</text>
  <text x="140" y="446" fill="#cbd5e1" font-family="Inter, ui-sans-serif, system-ui, -apple-system, BlinkMacSystemFont, 'Segoe UI', sans-serif" font-size="30" font-weight="500">AI questions, resume-grounded answer frameworks, role-play, and scorecards.</text>
  <rect x="826" y="390" width="208" height="58" rx="18" fill="#4f46e5"/>
  <text x="858" y="428" fill="white" font-family="Inter, ui-sans-serif, system-ui, -apple-system, BlinkMacSystemFont, 'Segoe UI', sans-serif" font-size="22" font-weight="700">Start free prep</text>
  <defs>
    <linearGradient id="border" x1="96" x2="1104" y1="82" y2="548" gradientUnits="userSpaceOnUse">
      <stop stop-color="#818cf8"/>
      <stop offset="0.55" stop-color="#a78bfa"/>
      <stop offset="1" stop-color="#f0abfc"/>
    </linearGradient>
    <filter id="glow" x="119" y="103" width="116" height="116" filterUnits="userSpaceOnUse" color-interpolation-filters="sRGB">
      <feGaussianBlur stdDeviation="12" result="blur"/>
      <feBlend in="SourceGraphic" in2="blur" mode="screen"/>
    </filter>
  </defs>
</svg>
